<svg xmlns="http://www.w3.org/2000/svg" id="Documoto" viewBox="0 0 571.55 116.11"><defs><style>.cls-1{fill:#001466;}.cls-2{fill:#67c9b4;}</style></defs><title>18-DM-Logo</title><path class="cls-1" d="M131.94,140.87h30.39c21.41,0,37.31,12.24,37.31,34s-15.9,34-37.21,34H131.94Zm30.39,50.07c10.29,0,16.41-7.55,16.41-16.11,0-9.18-5.3-16-16.31-16h-9.89v32.12Z" transform="translate(-83.17 -92.77)"/><path class="cls-2" d="M126,160a17.69,17.69,0,1,1,25-25h27.77a43,43,0,0,0-4.72-10.51l6.77-8.52a2.65,2.65,0,0,0,0-3.32,54.74,54.74,0,0,0-18.93-15,2.66,2.66,0,0,0-3.24.74l-6.77,8.51a42.61,42.61,0,0,0-15.35-2.3l-4-10.12a2.67,2.67,0,0,0-2.89-1.65,55.18,55.18,0,0,0-22.48,8.87,2.64,2.64,0,0,0-1,3.17l4,10.12a42.65,42.65,0,0,0-9.66,12.16l-10.76-1.6a2.65,2.65,0,0,0-2.87,1.66,55,55,0,0,0-3.58,23.91,2.67,2.67,0,0,0,2.26,2.44l10.77,1.6A42.88,42.88,0,0,0,102,169.58l-6.77,8.52a2.66,2.66,0,0,0,0,3.32,54.62,54.62,0,0,0,18.93,15,2.67,2.67,0,0,0,3.24-.73l6.77-8.52c1,0,1.2.06,1.8.06Z" transform="translate(-83.17 -92.77)"/><path class="cls-1" d="M204.34,178.84c0-15.42,11.22-28.68,29.82-28.68,18.82,0,29.92,13.26,29.92,28.68s-11.1,28.79-29.92,28.79C215.56,207.63,204.34,194.25,204.34,178.84Zm41.83,0c0-7.26-4.31-13.27-12-13.27s-11.79,6-11.79,13.27,4.19,13.38,11.79,13.38S246.17,186.21,246.17,178.84Z" transform="translate(-83.17 -92.77)"/><path class="cls-1" d="M299.16,150.16c11.79,0,19.16,5.21,22.45,10.09l-11.34,10.54A12,12,0,0,0,300,165.57c-7.26,0-12.81,5-12.81,13.27s5.55,13.38,12.81,13.38a12.31,12.31,0,0,0,10.31-5.34l11.34,10.66c-3.29,4.76-10.66,10.09-22.45,10.09-17.11,0-29.92-11.56-29.92-28.79S282.05,150.16,299.16,150.16Z" transform="translate(-83.17 -92.77)"/><path class="cls-1" d="M365.15,199.69c-3.4,3.86-9.75,7.94-18.93,7.94-12.47,0-18-7-18-17.12v-39h17.46v31.85c0,6.58,3.4,8.85,9.07,8.85a13.07,13.07,0,0,0,10.43-5.34V151.52h17.46v54.75H365.15Z" transform="translate(-83.17 -92.77)"/><path class="cls-1" d="M463.62,172.94c0-4.19-2-7.37-7.25-7.37-4.77,0-8.17,3.07-9.86,5.33v35.37H429.05V172.94c0-4.19-1.93-7.37-7.26-7.37-4.65,0-7.93,3.07-9.75,5.33v35.37H394.58V151.52H412v6.69c2.38-3.18,9.41-8.05,18-8.05,7.82,0,13.26,3.28,15.53,9.75a23.52,23.52,0,0,1,18.93-9.75c10.09,0,16.44,5.21,16.44,16.44v39.67H463.62Z" transform="translate(-83.17 -92.77)"/><path class="cls-1" d="M489.66,178.84c0-15.42,11.22-28.68,29.81-28.68,18.82,0,29.93,13.26,29.93,28.68s-11.11,28.79-29.93,28.79C500.88,207.63,489.66,194.25,489.66,178.84Zm41.83,0c0-7.26-4.31-13.27-12-13.27s-11.79,6-11.79,13.27,4.2,13.38,11.79,13.38S531.49,186.21,531.49,178.84Z" transform="translate(-83.17 -92.77)"/><path class="cls-1" d="M561.73,191.53V166.71h-9.07V151.52h9.07v-15h17.34v15h11.11v15.19H579.07v19.95c0,3.17,1.82,5.56,4.88,5.56,1.93,0,3.85-.69,4.42-1.37l3.4,13.15c-2.16,2-6.46,3.63-12.92,3.63C567.74,207.63,561.73,202.08,561.73,191.53Z" transform="translate(-83.17 -92.77)"/><path class="cls-1" d="M595,178.84c0-15.42,11.22-28.68,29.81-28.68,18.82,0,29.93,13.26,29.93,28.68s-11.11,28.79-29.93,28.79C606.2,207.63,595,194.25,595,178.84Zm41.83,0c0-7.26-4.31-13.27-12-13.27s-11.79,6-11.79,13.27,4.2,13.38,11.79,13.38S636.81,186.21,636.81,178.84Z" transform="translate(-83.17 -92.77)"/></svg>